<?xml version="1.0" encoding="UTF-8"?>
<svg width="16px" height="16px" viewBox="0 0 16 16" version="1.1" xmlns="http://www.w3.org/2000/svg" xmlns:xlink="http://www.w3.org/1999/xlink">
    <title>icon/下载列表16/下载/手机预览@3x</title>
    <g id="icon/下载列表16/下载/手机预览" stroke="none" stroke-width="1" fill="none" fill-rule="evenodd">
        <rect id="矩形" x="0" y="0" width="16" height="16"></rect>
        <path d="M15.4285714,1 C15.7441627,1 16,1.26116723 16,1.58333333 L16,14.4166667 C16,14.7388328 15.7441627,15 15.4285714,15 L0.571428571,15 C0.255837291,15 0,14.7388328 0,14.4166667 L0,1.58333333 C0,1.26116723 0.255837291,1 0.571428571,1 L15.4285714,1 Z M11.093,8.325 L8.32183688,11.1328322 L4.182,10.078 L2,11.521 L2,13 L14,13 L14,10.516 L11.093,8.325 Z M14,3 L2,3 L2,9.123 L3.81770862,7.92163141 L7.703,8.911 L10.9003591,5.6746814 L14,8.011 L14,3 Z M4.5,4 C5.32842712,4 6,4.67157288 6,5.5 C6,6.32842712 5.32842712,7 4.5,7 C3.67157288,7 3,6.32842712 3,5.5 C3,4.67157288 3.67157288,4 4.5,4 Z" id="形状结合" fill="#6A707C" fill-rule="nonzero"></path>
    </g>
</svg>