<svg width="16" height="16" viewBox="0 0 16 16" fill="none" xmlns="http://www.w3.org/2000/svg">
<g id="&#231;&#129;&#171;&#231;&#174;&#173; 1" clip-path="url(#clip0_224_5802)">
<path id="Vector" d="M15.2009 1.19058C15.1786 1.09524 15.1301 1.00804 15.0609 0.938811C14.9917 0.869586 14.9045 0.821105 14.8091 0.798846C11.9443 0.140712 8.81928 0.923913 6.59262 3.15058C6.27883 3.46478 5.98937 3.80238 5.72675 4.16045C5.65235 4.26178 5.54595 4.33191 5.42408 4.36205C4.26088 4.65005 3.14035 5.25778 2.20995 6.18818C1.79362 6.60382 1.43106 7.07004 1.13075 7.57591C0.876349 8.00551 1.31235 8.51218 1.78062 8.33911C2.51955 8.06605 3.31795 7.93191 4.14088 7.93138C4.12942 8.00151 4.11288 8.07085 4.10302 8.14098C4.68051 8.81317 5.28297 9.46349 5.90915 10.0906C6.53617 10.7168 7.1865 11.3193 7.85875 11.8967C7.92888 11.8868 7.99822 11.8703 8.06808 11.8588C8.06755 12.6818 7.93342 13.4802 7.66035 14.2191C7.48728 14.6874 7.99395 15.1234 8.42355 14.869C8.92951 14.5687 9.39581 14.2061 9.81155 13.7898C10.7417 12.8596 11.3494 11.7388 11.6374 10.5759C11.6675 10.454 11.7379 10.3476 11.839 10.2732C12.1971 10.0106 12.5347 9.72117 12.8489 9.40738C15.0758 7.18018 15.859 4.05538 15.2009 1.19058ZM11.6121 6.90685C11.278 7.24095 10.8248 7.42864 10.3523 7.42864C9.87986 7.42864 9.42672 7.24095 9.09262 6.90685C8.75851 6.57274 8.57082 6.1196 8.57082 5.64711C8.57082 5.17462 8.75851 4.72148 9.09262 4.38738C9.42672 4.05328 9.87986 3.86558 10.3523 3.86558C10.5863 3.86558 10.818 3.91166 11.0341 4.00119C11.2503 4.09072 11.4467 4.22195 11.6121 4.38738C11.7775 4.55281 11.9087 4.7492 11.9983 4.96535C12.0878 5.1815 12.1339 5.41316 12.1339 5.64711C12.1339 5.88107 12.0878 6.11273 11.9983 6.32888C11.9087 6.54502 11.7775 6.74142 11.6121 6.90685Z" fill="#3F85FF"/>
<path id="Vector_2" d="M2.86706 10.7733C2.32706 11.3133 0.0377289 14.6592 0.689462 15.3109C1.3412 15.9626 4.68706 13.673 5.22706 13.1333C5.76706 12.5933 5.6764 11.6274 5.02466 10.976C4.37293 10.324 3.4068 10.2333 2.86706 10.7733Z" fill="#3F85FF"/>
</g>
<defs>
<clipPath id="clip0_224_5802">
<rect width="16" height="16" fill="white"/>
</clipPath>
</defs>
</svg>
