<?xml version="1.0" encoding="utf-8"?>
<!-- Generator: Adobe Illustrator 23.0.3, SVG Export Plug-In . SVG Version: 6.00 Build 0)  -->
<svg version="1.1" id="图层_1" xmlns="http://www.w3.org/2000/svg" xmlns:xlink="http://www.w3.org/1999/xlink" x="0px" y="0px"
	 viewBox="0 0 200 200" style="enable-background:new 0 0 200 200;" xml:space="preserve">
<path fill="#8285a6" d="M50.3,146.9c0.4,0,0.8,0,1.2-0.1l32.9-5.8c0.4-0.1,0.8-0.3,1-0.5l82.8-82.8c0.8-0.8,0.8-2,0-2.8l-32.5-32.5
	c-0.4-0.4-0.9-0.6-1.4-0.6c-0.5,0-1,0.2-1.4,0.6l-82.8,82.8c-0.3,0.3-0.5,0.6-0.5,1l-5.8,32.9c-0.4,2.2,0.3,4.3,1.8,5.8
	C47,146.2,48.6,146.9,50.3,146.9z M63.5,112.8L134.3,42l14.3,14.3l-70.8,70.8l-17.4,3.1L63.5,112.8L63.5,112.8z M171.9,163.3H28.1
	c-3.5,0-6.3,2.8-6.3,6.3v7c0,0.9,0.7,1.6,1.6,1.6h153.1c0.9,0,1.6-0.7,1.6-1.6v-7C178.1,166.1,175.3,163.3,171.9,163.3z"/>
</svg>
