<?xml version="1.0" standalone="no"?><!DOCTYPE svg PUBLIC "-//W3C//DTD SVG 1.1//EN" "http://www.w3.org/Graphics/SVG/1.1/DTD/svg11.dtd"><svg class="icon" width="200px" height="200.00px" viewBox="0 0 1024 1024" version="1.1" xmlns="http://www.w3.org/2000/svg"><path fill="#672ee3" d="M900.266667 900.266667c-8.533333 8.533333-21.333333 8.533333-29.866667 0L740.266667 768c-66.133333 59.733333-153.6 96-249.6 96-206.933333 0-373.333333-166.4-373.333333-373.333333S283.733333 119.466667 490.666667 119.466667s373.333333 166.4 373.333333 373.333333c0 93.866667-36.266667 181.333333-93.866667 245.333333l130.133333 130.133333C908.8 876.8 908.8 891.733333 900.266667 900.266667zM490.666667 162.133333c-183.466667 0-330.666667 147.2-330.666667 330.666667S307.2 823.466667 490.666667 823.466667s330.666667-147.2 330.666667-330.666667S672 162.133333 490.666667 162.133333z" /></svg>